<svg width="669" height="775" viewBox="0 0 669 775" fill="none" xmlns="http://www.w3.org/2000/svg">
<circle cx="33" cy="199.22" r="33" fill="white"/>
<path d="M25.1898 214.033C22.9309 207.509 26.388 200.39 32.9115 198.131V198.131C39.435 195.872 46.5546 199.329 48.8136 205.852L238.692 754.19C240.951 760.713 237.494 767.833 230.971 770.092V770.092C224.447 772.351 217.328 768.894 215.069 762.37L25.1898 214.033Z" fill="white"/>
<path d="M69.9226 215.38C69.9226 215.38 111.355 162.856 146.721 140.313C239.674 81.0636 337.858 202.823 428.983 140.799C460.044 119.658 496.625 72.3813 496.625 72.3813L593.166 353.187C593.166 353.187 577.5 395 510.478 423.902C462.098 444.766 284.955 408.402 239.228 420.451C193.5 432.5 169.695 492.959 169.695 492.959L69.9226 215.38Z" fill="white"/>
</svg>
